%
M48
M72
T01C0.0236
T02C0.0320
T03C0.0360
T04C0.0394
T05C0.0400
T06C0.1260
%
T01
X1680Y3680
X10180Y4180
X11980Y6280
T02
X11680Y2680
X10680Y2680
X6180Y5180
X6180Y4180
X6180Y3180
X6180Y2180
X9180Y2180
X9180Y3180
X9180Y4180
X9180Y5180
X11180Y4680
X11180Y5680
T03
X3380Y2180
X4380Y2180
T04
X3880Y6164
X2896Y4196
X4864Y4196
T05
X13930Y2680
X12930Y2680
X12930Y1680
X13930Y1680
T06
X12630Y5230
X1680Y2180
X1680Y5680
M30
