G75*
%MOIN*%
%OFA0B0*%
%FSLAX24Y24*%
%IPPOS*%
%LPD*%
%AMOC8*
5,1,8,0,0,1.08239X$1,22.5*
%
%ADD10C,0.0000*%
%ADD11OC8,0.0630*%
%ADD12C,0.0630*%
%ADD13OC8,0.0480*%
%ADD14C,0.0540*%
%ADD15C,0.0591*%
%ADD16OC8,0.0600*%
%ADD17C,0.0480*%
%ADD18C,0.0160*%
%ADD19C,0.0376*%
D10*
X000680Y000680D02*
X000680Y007176D01*
X011113Y007176D01*
X012000Y005230D02*
X012002Y005280D01*
X012008Y005330D01*
X012018Y005379D01*
X012032Y005427D01*
X012049Y005474D01*
X012070Y005519D01*
X012095Y005563D01*
X012123Y005604D01*
X012155Y005643D01*
X012189Y005680D01*
X012226Y005714D01*
X012266Y005744D01*
X012308Y005771D01*
X012352Y005795D01*
X012398Y005816D01*
X012445Y005832D01*
X012493Y005845D01*
X012543Y005854D01*
X012592Y005859D01*
X012643Y005860D01*
X012693Y005857D01*
X012742Y005850D01*
X012791Y005839D01*
X012839Y005824D01*
X012885Y005806D01*
X012930Y005784D01*
X012973Y005758D01*
X013014Y005729D01*
X013053Y005697D01*
X013089Y005662D01*
X013121Y005624D01*
X013151Y005584D01*
X013178Y005541D01*
X013201Y005497D01*
X013220Y005451D01*
X013236Y005403D01*
X013248Y005354D01*
X013256Y005305D01*
X013260Y005255D01*
X013260Y005205D01*
X013256Y005155D01*
X013248Y005106D01*
X013236Y005057D01*
X013220Y005009D01*
X013201Y004963D01*
X013178Y004919D01*
X013151Y004876D01*
X013121Y004836D01*
X013089Y004798D01*
X013053Y004763D01*
X013014Y004731D01*
X012973Y004702D01*
X012930Y004676D01*
X012885Y004654D01*
X012839Y004636D01*
X012791Y004621D01*
X012742Y004610D01*
X012693Y004603D01*
X012643Y004600D01*
X012592Y004601D01*
X012543Y004606D01*
X012493Y004615D01*
X012445Y004628D01*
X012398Y004644D01*
X012352Y004665D01*
X012308Y004689D01*
X012266Y004716D01*
X012226Y004746D01*
X012189Y004780D01*
X012155Y004817D01*
X012123Y004856D01*
X012095Y004897D01*
X012070Y004941D01*
X012049Y004986D01*
X012032Y005033D01*
X012018Y005081D01*
X012008Y005130D01*
X012002Y005180D01*
X012000Y005230D01*
X011113Y007176D02*
X011237Y007174D01*
X011360Y007168D01*
X011484Y007159D01*
X011606Y007145D01*
X011729Y007128D01*
X011851Y007106D01*
X011972Y007081D01*
X012092Y007052D01*
X012211Y007020D01*
X012330Y006983D01*
X012447Y006943D01*
X012562Y006900D01*
X012677Y006852D01*
X012789Y006801D01*
X012900Y006747D01*
X013010Y006689D01*
X013117Y006628D01*
X013223Y006563D01*
X013326Y006495D01*
X013427Y006424D01*
X013526Y006350D01*
X013623Y006273D01*
X013717Y006192D01*
X013808Y006109D01*
X013897Y006023D01*
X013983Y005934D01*
X014066Y005843D01*
X014147Y005749D01*
X014224Y005652D01*
X014298Y005553D01*
X014369Y005452D01*
X014437Y005349D01*
X014502Y005243D01*
X014563Y005136D01*
X014621Y005026D01*
X014675Y004915D01*
X014726Y004803D01*
X014774Y004688D01*
X014817Y004573D01*
X014857Y004456D01*
X014894Y004337D01*
X014926Y004218D01*
X014955Y004098D01*
X014980Y003977D01*
X015002Y003855D01*
X015019Y003732D01*
X015033Y003610D01*
X015042Y003486D01*
X015048Y003363D01*
X015050Y003239D01*
X015050Y000680D01*
X000680Y000680D01*
X001050Y002180D02*
X001052Y002230D01*
X001058Y002280D01*
X001068Y002329D01*
X001082Y002377D01*
X001099Y002424D01*
X001120Y002469D01*
X001145Y002513D01*
X001173Y002554D01*
X001205Y002593D01*
X001239Y002630D01*
X001276Y002664D01*
X001316Y002694D01*
X001358Y002721D01*
X001402Y002745D01*
X001448Y002766D01*
X001495Y002782D01*
X001543Y002795D01*
X001593Y002804D01*
X001642Y002809D01*
X001693Y002810D01*
X001743Y002807D01*
X001792Y002800D01*
X001841Y002789D01*
X001889Y002774D01*
X001935Y002756D01*
X001980Y002734D01*
X002023Y002708D01*
X002064Y002679D01*
X002103Y002647D01*
X002139Y002612D01*
X002171Y002574D01*
X002201Y002534D01*
X002228Y002491D01*
X002251Y002447D01*
X002270Y002401D01*
X002286Y002353D01*
X002298Y002304D01*
X002306Y002255D01*
X002310Y002205D01*
X002310Y002155D01*
X002306Y002105D01*
X002298Y002056D01*
X002286Y002007D01*
X002270Y001959D01*
X002251Y001913D01*
X002228Y001869D01*
X002201Y001826D01*
X002171Y001786D01*
X002139Y001748D01*
X002103Y001713D01*
X002064Y001681D01*
X002023Y001652D01*
X001980Y001626D01*
X001935Y001604D01*
X001889Y001586D01*
X001841Y001571D01*
X001792Y001560D01*
X001743Y001553D01*
X001693Y001550D01*
X001642Y001551D01*
X001593Y001556D01*
X001543Y001565D01*
X001495Y001578D01*
X001448Y001594D01*
X001402Y001615D01*
X001358Y001639D01*
X001316Y001666D01*
X001276Y001696D01*
X001239Y001730D01*
X001205Y001767D01*
X001173Y001806D01*
X001145Y001847D01*
X001120Y001891D01*
X001099Y001936D01*
X001082Y001983D01*
X001068Y002031D01*
X001058Y002080D01*
X001052Y002130D01*
X001050Y002180D01*
X001050Y005680D02*
X001052Y005730D01*
X001058Y005780D01*
X001068Y005829D01*
X001082Y005877D01*
X001099Y005924D01*
X001120Y005969D01*
X001145Y006013D01*
X001173Y006054D01*
X001205Y006093D01*
X001239Y006130D01*
X001276Y006164D01*
X001316Y006194D01*
X001358Y006221D01*
X001402Y006245D01*
X001448Y006266D01*
X001495Y006282D01*
X001543Y006295D01*
X001593Y006304D01*
X001642Y006309D01*
X001693Y006310D01*
X001743Y006307D01*
X001792Y006300D01*
X001841Y006289D01*
X001889Y006274D01*
X001935Y006256D01*
X001980Y006234D01*
X002023Y006208D01*
X002064Y006179D01*
X002103Y006147D01*
X002139Y006112D01*
X002171Y006074D01*
X002201Y006034D01*
X002228Y005991D01*
X002251Y005947D01*
X002270Y005901D01*
X002286Y005853D01*
X002298Y005804D01*
X002306Y005755D01*
X002310Y005705D01*
X002310Y005655D01*
X002306Y005605D01*
X002298Y005556D01*
X002286Y005507D01*
X002270Y005459D01*
X002251Y005413D01*
X002228Y005369D01*
X002201Y005326D01*
X002171Y005286D01*
X002139Y005248D01*
X002103Y005213D01*
X002064Y005181D01*
X002023Y005152D01*
X001980Y005126D01*
X001935Y005104D01*
X001889Y005086D01*
X001841Y005071D01*
X001792Y005060D01*
X001743Y005053D01*
X001693Y005050D01*
X001642Y005051D01*
X001593Y005056D01*
X001543Y005065D01*
X001495Y005078D01*
X001448Y005094D01*
X001402Y005115D01*
X001358Y005139D01*
X001316Y005166D01*
X001276Y005196D01*
X001239Y005230D01*
X001205Y005267D01*
X001173Y005306D01*
X001145Y005347D01*
X001120Y005391D01*
X001099Y005436D01*
X001082Y005483D01*
X001068Y005531D01*
X001058Y005580D01*
X001052Y005630D01*
X001050Y005680D01*
D11*
X011680Y002680D03*
D12*
X010680Y002680D03*
D13*
X011180Y004680D03*
X011180Y005680D03*
D14*
X004380Y002450D02*
X004380Y001910D01*
X003380Y001910D02*
X003380Y002450D01*
D15*
X002896Y004196D03*
X004864Y004196D03*
X003880Y006164D03*
D16*
X012930Y002680D03*
X013930Y002680D03*
X013930Y001680D03*
X012930Y001680D03*
D17*
X009420Y002180D02*
X008940Y002180D01*
X008940Y003180D02*
X009420Y003180D01*
X009420Y004180D02*
X008940Y004180D01*
X008940Y005180D02*
X009420Y005180D01*
X006420Y005180D02*
X005940Y005180D01*
X005940Y004180D02*
X006420Y004180D01*
X006420Y003180D02*
X005940Y003180D01*
X005940Y002180D02*
X006420Y002180D01*
D18*
X006180Y002180D02*
X007180Y001180D01*
X009180Y001180D01*
X010680Y002680D01*
X011580Y003580D01*
X013280Y003580D01*
X013880Y002780D01*
X013520Y002893D02*
X013490Y002862D01*
X013490Y002498D01*
X013748Y002240D01*
X014112Y002240D01*
X014360Y002488D01*
X014360Y002371D01*
X014109Y002120D01*
X013748Y002120D01*
X013490Y001862D01*
X013490Y001498D01*
X013748Y001240D01*
X014112Y001240D01*
X014370Y001498D01*
X014370Y001759D01*
X014671Y002060D01*
X014800Y002189D01*
X014800Y002860D01*
X014813Y002930D01*
X014800Y002949D01*
X014800Y002971D01*
X014750Y003022D01*
X013900Y004249D01*
X013900Y004271D01*
X013850Y004322D01*
X013809Y004380D01*
X013787Y004384D01*
X013771Y004400D01*
X013700Y004400D01*
X013630Y004413D01*
X013611Y004400D01*
X012873Y004400D01*
X013117Y004501D01*
X013359Y004743D01*
X013490Y005059D01*
X013490Y005401D01*
X013359Y005717D01*
X013117Y005959D01*
X012801Y006090D01*
X012459Y006090D01*
X012143Y005959D01*
X011901Y005717D01*
X011770Y005401D01*
X011770Y005059D01*
X011901Y004743D01*
X012143Y004501D01*
X012387Y004400D01*
X011771Y004400D01*
X011560Y004611D01*
X011560Y004837D01*
X011337Y005060D01*
X011111Y005060D01*
X010900Y005271D01*
X010771Y005400D01*
X009737Y005400D01*
X009635Y005502D01*
X009496Y005560D01*
X008864Y005560D01*
X008725Y005502D01*
X008618Y005395D01*
X008560Y005256D01*
X008560Y005104D01*
X008618Y004965D01*
X008636Y004947D01*
X007960Y004271D01*
X007960Y003089D01*
X008089Y002960D01*
X008636Y002413D01*
X008618Y002395D01*
X008560Y002256D01*
X008560Y002104D01*
X008618Y001965D01*
X008725Y001858D01*
X008864Y001800D01*
X009489Y001800D01*
X009089Y001400D01*
X007271Y001400D01*
X006724Y001947D01*
X006742Y001965D01*
X006800Y002104D01*
X006800Y002256D01*
X006742Y002395D01*
X006635Y002502D01*
X006496Y002560D01*
X005864Y002560D01*
X005725Y002502D01*
X005623Y002400D01*
X004790Y002400D01*
X004790Y002532D01*
X004728Y002682D01*
X004612Y002798D01*
X004462Y002860D01*
X004298Y002860D01*
X004148Y002798D01*
X004032Y002682D01*
X003970Y002532D01*
X003970Y001828D01*
X004032Y001678D01*
X004148Y001562D01*
X004298Y001500D01*
X004462Y001500D01*
X004612Y001562D01*
X004728Y001678D01*
X004790Y001828D01*
X004790Y001960D01*
X005623Y001960D01*
X005725Y001858D01*
X005864Y001800D01*
X006249Y001800D01*
X006960Y001089D01*
X007089Y000960D01*
X009271Y000960D01*
X010552Y002241D01*
X010589Y002225D01*
X010771Y002225D01*
X010938Y002294D01*
X011066Y002422D01*
X011135Y002589D01*
X011135Y002771D01*
X011119Y002808D01*
X011185Y002874D01*
X011185Y002680D01*
X011680Y002680D01*
X011680Y002680D01*
X011680Y003175D01*
X011885Y003175D01*
X012175Y002885D01*
X012175Y002680D01*
X011680Y002680D01*
X011680Y002680D01*
X011680Y003175D01*
X011486Y003175D01*
X011671Y003360D01*
X013170Y003360D01*
X013520Y002893D01*
X013516Y002899D02*
X013390Y002899D01*
X013410Y002879D02*
X013129Y003160D01*
X012950Y003160D01*
X012950Y002700D01*
X013410Y002700D01*
X013410Y002879D01*
X013410Y002741D02*
X013490Y002741D01*
X013410Y002660D02*
X012950Y002660D01*
X012950Y002700D01*
X012910Y002700D01*
X012910Y003160D01*
X012731Y003160D01*
X012450Y002879D01*
X012450Y002700D01*
X012910Y002700D01*
X012910Y002660D01*
X012950Y002660D01*
X012950Y002200D01*
X013129Y002200D01*
X013410Y002481D01*
X013410Y002660D01*
X013410Y002582D02*
X013490Y002582D01*
X013564Y002424D02*
X013352Y002424D01*
X013194Y002265D02*
X013723Y002265D01*
X013734Y002107D02*
X013182Y002107D01*
X013129Y002160D02*
X012950Y002160D01*
X012950Y001700D01*
X013410Y001700D01*
X013410Y001879D01*
X013129Y002160D01*
X012950Y002107D02*
X012910Y002107D01*
X012910Y002160D02*
X012731Y002160D01*
X012450Y001879D01*
X012450Y001700D01*
X012910Y001700D01*
X012910Y002160D01*
X012910Y002200D02*
X012910Y002660D01*
X012450Y002660D01*
X012450Y002481D01*
X012731Y002200D01*
X012910Y002200D01*
X012910Y002265D02*
X012950Y002265D01*
X012950Y002424D02*
X012910Y002424D01*
X012910Y002582D02*
X012950Y002582D01*
X012950Y002741D02*
X012910Y002741D01*
X012910Y002899D02*
X012950Y002899D01*
X012950Y003058D02*
X012910Y003058D01*
X012629Y003058D02*
X012003Y003058D01*
X012161Y002899D02*
X012470Y002899D01*
X012450Y002741D02*
X012175Y002741D01*
X012175Y002680D02*
X011680Y002680D01*
X011680Y002185D01*
X011885Y002185D01*
X012175Y002475D01*
X012175Y002680D01*
X012175Y002582D02*
X012450Y002582D01*
X012508Y002424D02*
X012124Y002424D01*
X011965Y002265D02*
X012666Y002265D01*
X012678Y002107D02*
X010418Y002107D01*
X010259Y001948D02*
X012519Y001948D01*
X012450Y001790D02*
X010101Y001790D01*
X009942Y001631D02*
X012450Y001631D01*
X012450Y001660D02*
X012450Y001481D01*
X012731Y001200D01*
X012910Y001200D01*
X012910Y001660D01*
X012950Y001660D01*
X012950Y001700D01*
X012910Y001700D01*
X012910Y001660D01*
X012450Y001660D01*
X012459Y001473D02*
X009784Y001473D01*
X009625Y001314D02*
X012617Y001314D01*
X012910Y001314D02*
X012950Y001314D01*
X012950Y001200D02*
X013129Y001200D01*
X013410Y001481D01*
X013410Y001660D01*
X012950Y001660D01*
X012950Y001200D01*
X013243Y001314D02*
X013674Y001314D01*
X013515Y001473D02*
X013401Y001473D01*
X013410Y001631D02*
X013490Y001631D01*
X013490Y001790D02*
X013410Y001790D01*
X013341Y001948D02*
X013576Y001948D01*
X013980Y001680D02*
X014580Y002280D01*
X014580Y002880D01*
X013680Y004180D01*
X011680Y004180D01*
X011180Y004680D01*
X010680Y005180D01*
X009180Y005180D01*
X008180Y004180D01*
X008180Y003180D01*
X009180Y002180D01*
X009714Y002424D02*
X010112Y002424D01*
X010241Y002552D02*
X009800Y002111D01*
X009800Y002256D01*
X009742Y002395D01*
X009635Y002502D01*
X009496Y002560D01*
X009111Y002560D01*
X008911Y002760D01*
X009180Y002760D01*
X009453Y002760D01*
X009518Y002770D01*
X009581Y002791D01*
X009640Y002821D01*
X009694Y002860D01*
X009740Y002906D01*
X009779Y002960D01*
X009809Y003019D01*
X009830Y003082D01*
X009840Y003147D01*
X009840Y003180D01*
X009840Y003213D01*
X009830Y003278D01*
X009809Y003341D01*
X009779Y003400D01*
X009740Y003454D01*
X009694Y003500D01*
X009640Y003539D01*
X009581Y003569D01*
X009518Y003590D01*
X009453Y003600D01*
X009180Y003600D01*
X009180Y003180D01*
X009180Y003180D01*
X009840Y003180D01*
X009180Y003180D01*
X009180Y003180D01*
X009180Y003180D01*
X008520Y003180D01*
X008520Y003213D01*
X008530Y003278D01*
X008551Y003341D01*
X008581Y003400D01*
X008620Y003454D01*
X008666Y003500D01*
X008720Y003539D01*
X008779Y003569D01*
X008842Y003590D01*
X008907Y003600D01*
X009180Y003600D01*
X009180Y003180D01*
X009180Y002760D01*
X009180Y003180D01*
X009180Y003180D01*
X008520Y003180D01*
X008520Y003151D01*
X008400Y003271D01*
X008400Y004089D01*
X008520Y004209D01*
X008520Y004180D01*
X009180Y004180D01*
X009180Y004180D01*
X009180Y004600D01*
X009453Y004600D01*
X009518Y004590D01*
X009581Y004569D01*
X009640Y004539D01*
X009694Y004500D01*
X009740Y004454D01*
X009779Y004400D01*
X009809Y004341D01*
X009830Y004278D01*
X009840Y004213D01*
X009840Y004180D01*
X009180Y004180D01*
X009180Y004180D01*
X009180Y004600D01*
X008911Y004600D01*
X009111Y004800D01*
X009496Y004800D01*
X009635Y004858D01*
X009737Y004960D01*
X010589Y004960D01*
X010800Y004749D01*
X010800Y004523D01*
X011023Y004300D01*
X011249Y004300D01*
X011589Y003960D01*
X013565Y003960D01*
X014223Y003009D01*
X014112Y003120D01*
X013900Y003120D01*
X013500Y003653D01*
X013500Y003671D01*
X013447Y003725D01*
X013401Y003785D01*
X013384Y003787D01*
X013371Y003800D01*
X013296Y003800D01*
X013221Y003811D01*
X013207Y003800D01*
X011489Y003800D01*
X010808Y003119D01*
X010771Y003135D01*
X010589Y003135D01*
X010422Y003066D01*
X010294Y002938D01*
X010225Y002771D01*
X010225Y002589D01*
X010241Y002552D01*
X010228Y002582D02*
X009089Y002582D01*
X008931Y002741D02*
X010225Y002741D01*
X010278Y002899D02*
X009733Y002899D01*
X009822Y003058D02*
X010414Y003058D01*
X010905Y003216D02*
X009840Y003216D01*
X009792Y003375D02*
X011063Y003375D01*
X011222Y003533D02*
X009649Y003533D01*
X009581Y003791D02*
X009518Y003770D01*
X009453Y003760D01*
X009180Y003760D01*
X009180Y004180D01*
X009840Y004180D01*
X009840Y004147D01*
X009830Y004082D01*
X009809Y004019D01*
X009779Y003960D01*
X009740Y003906D01*
X009694Y003860D01*
X009640Y003821D01*
X009581Y003791D01*
X009680Y003850D02*
X013641Y003850D01*
X013751Y003692D02*
X013480Y003692D01*
X013590Y003533D02*
X013860Y003533D01*
X013970Y003375D02*
X013709Y003375D01*
X013828Y003216D02*
X014080Y003216D01*
X014175Y003058D02*
X014190Y003058D01*
X014615Y003216D02*
X014820Y003216D01*
X014820Y003239D02*
X014820Y000910D01*
X000910Y000910D01*
X000910Y001792D01*
X000951Y001693D01*
X001193Y001451D01*
X001509Y001320D01*
X001851Y001320D01*
X002167Y001451D01*
X002409Y001693D01*
X002540Y002009D01*
X002540Y002351D01*
X002409Y002667D01*
X002167Y002909D01*
X001851Y003040D01*
X001509Y003040D01*
X001193Y002909D01*
X000951Y002667D01*
X000910Y002568D01*
X000910Y005292D01*
X000951Y005193D01*
X001193Y004951D01*
X001509Y004820D01*
X001851Y004820D01*
X002167Y004951D01*
X002409Y005193D01*
X002540Y005509D01*
X002540Y005851D01*
X002409Y006167D01*
X002167Y006409D01*
X001851Y006540D01*
X001509Y006540D01*
X001193Y006409D01*
X000951Y006167D01*
X000910Y006068D01*
X000910Y006946D01*
X011113Y006946D01*
X011436Y006932D01*
X012073Y006820D01*
X012680Y006599D01*
X013239Y006276D01*
X013734Y005860D01*
X014150Y005365D01*
X014473Y004806D01*
X014694Y004198D01*
X014806Y003562D01*
X014820Y003239D01*
X014814Y003375D02*
X014505Y003375D01*
X014395Y003533D02*
X014807Y003533D01*
X014783Y003692D02*
X014286Y003692D01*
X014176Y003850D02*
X014755Y003850D01*
X014727Y004009D02*
X014066Y004009D01*
X013957Y004167D02*
X014699Y004167D01*
X014648Y004326D02*
X013847Y004326D01*
X013259Y004643D02*
X014532Y004643D01*
X014474Y004801D02*
X013383Y004801D01*
X013449Y004960D02*
X014384Y004960D01*
X014292Y005118D02*
X013490Y005118D01*
X013490Y005277D02*
X014201Y005277D01*
X014091Y005435D02*
X013476Y005435D01*
X013410Y005594D02*
X013958Y005594D01*
X013825Y005752D02*
X013324Y005752D01*
X013166Y005911D02*
X013674Y005911D01*
X013486Y006069D02*
X012852Y006069D01*
X013297Y006228D02*
X004315Y006228D01*
X004315Y006251D02*
X004249Y006411D01*
X004127Y006533D01*
X003967Y006600D01*
X003793Y006600D01*
X003633Y006533D01*
X003511Y006411D01*
X003445Y006251D01*
X003445Y006078D01*
X003511Y005918D01*
X003633Y005795D01*
X003793Y005729D01*
X003898Y005729D01*
X004460Y005096D01*
X004460Y005089D01*
X004520Y005029D01*
X004576Y004966D01*
X004584Y004965D01*
X004589Y004960D01*
X004674Y004960D01*
X004758Y004955D01*
X004764Y004960D01*
X005623Y004960D01*
X005725Y004858D01*
X005864Y004800D01*
X006496Y004800D01*
X006635Y004858D01*
X006742Y004965D01*
X006800Y005104D01*
X006800Y005256D01*
X006742Y005395D01*
X006635Y005502D01*
X006496Y005560D01*
X005864Y005560D01*
X005725Y005502D01*
X005623Y005400D01*
X004779Y005400D01*
X004271Y005971D01*
X004315Y006078D01*
X004315Y006251D01*
X004259Y006386D02*
X013048Y006386D01*
X012774Y006545D02*
X004099Y006545D01*
X003661Y006545D02*
X000910Y006545D01*
X000910Y006703D02*
X012393Y006703D01*
X011836Y006862D02*
X000910Y006862D01*
X000910Y006386D02*
X001170Y006386D01*
X001011Y006228D02*
X000910Y006228D01*
X000910Y006069D02*
X000910Y006069D01*
X002190Y006386D02*
X003501Y006386D01*
X003445Y006228D02*
X002349Y006228D01*
X002450Y006069D02*
X003448Y006069D01*
X003518Y005911D02*
X002515Y005911D01*
X002540Y005752D02*
X003738Y005752D01*
X004018Y005594D02*
X002540Y005594D01*
X002509Y005435D02*
X004159Y005435D01*
X004300Y005277D02*
X002444Y005277D01*
X002334Y005118D02*
X004441Y005118D01*
X004680Y005180D02*
X003880Y006080D01*
X004312Y006069D02*
X010975Y006069D01*
X011006Y006100D02*
X010760Y005854D01*
X010760Y005680D01*
X011180Y005680D01*
X011180Y005680D01*
X011180Y006100D01*
X011354Y006100D01*
X011600Y005854D01*
X011600Y005680D01*
X011180Y005680D01*
X011180Y005680D01*
X011180Y005680D01*
X011180Y006100D01*
X011006Y006100D01*
X011180Y006069D02*
X011180Y006069D01*
X011385Y006069D02*
X012408Y006069D01*
X012094Y005911D02*
X011543Y005911D01*
X011600Y005752D02*
X011936Y005752D01*
X011850Y005594D02*
X011600Y005594D01*
X011600Y005680D02*
X011600Y005506D01*
X011354Y005260D01*
X011180Y005260D01*
X011180Y005680D01*
X011600Y005680D01*
X011180Y005680D02*
X011180Y005680D01*
X010760Y005680D01*
X010760Y005506D01*
X011006Y005260D01*
X011180Y005260D01*
X011180Y005680D01*
X011180Y005752D02*
X011180Y005752D01*
X011180Y005594D02*
X011180Y005594D01*
X011180Y005435D02*
X011180Y005435D01*
X011180Y005277D02*
X011180Y005277D01*
X011370Y005277D02*
X011770Y005277D01*
X011784Y005435D02*
X011529Y005435D01*
X010990Y005277D02*
X010895Y005277D01*
X010831Y005435D02*
X009702Y005435D01*
X009737Y004960D02*
X010589Y004960D01*
X010748Y004801D02*
X009498Y004801D01*
X008954Y004643D02*
X010800Y004643D01*
X010839Y004484D02*
X009710Y004484D01*
X009814Y004326D02*
X010997Y004326D01*
X011382Y004167D02*
X009840Y004167D01*
X009804Y004009D02*
X011540Y004009D01*
X011380Y003692D02*
X008400Y003692D01*
X008400Y003850D02*
X008680Y003850D01*
X008666Y003860D02*
X008720Y003821D01*
X008779Y003791D01*
X008842Y003770D01*
X008907Y003760D01*
X009180Y003760D01*
X009180Y004180D01*
X009180Y004180D01*
X009180Y004180D01*
X008520Y004180D01*
X008520Y004147D01*
X008530Y004082D01*
X008551Y004019D01*
X008581Y003960D01*
X008620Y003906D01*
X008666Y003860D01*
X008556Y004009D02*
X008400Y004009D01*
X008478Y004167D02*
X008520Y004167D01*
X008014Y004326D02*
X006814Y004326D01*
X006809Y004341D02*
X006779Y004400D01*
X006740Y004454D01*
X006694Y004500D01*
X006640Y004539D01*
X006581Y004569D01*
X006518Y004590D01*
X006453Y004600D01*
X006180Y004600D01*
X006180Y004180D01*
X006180Y004180D01*
X006840Y004180D01*
X006840Y004213D01*
X006830Y004278D01*
X006809Y004341D01*
X006840Y004180D02*
X006180Y004180D01*
X006180Y004180D01*
X006180Y004600D01*
X005907Y004600D01*
X005842Y004590D01*
X005779Y004569D01*
X005720Y004539D01*
X005666Y004500D01*
X005620Y004454D01*
X005581Y004400D01*
X005551Y004341D01*
X005530Y004278D01*
X005520Y004213D01*
X005520Y004180D01*
X006180Y004180D01*
X006180Y003760D01*
X006453Y003760D01*
X006518Y003770D01*
X006581Y003791D01*
X006640Y003821D01*
X006694Y003860D01*
X006740Y003906D01*
X006779Y003960D01*
X006809Y004019D01*
X006830Y004082D01*
X006840Y004147D01*
X006840Y004180D01*
X006840Y004167D02*
X007960Y004167D01*
X007960Y004009D02*
X006804Y004009D01*
X006680Y003850D02*
X007960Y003850D01*
X007960Y003692D02*
X003600Y003692D01*
X003600Y003771D02*
X003471Y003900D01*
X003311Y004060D01*
X003331Y004109D01*
X003331Y004282D01*
X003265Y004442D01*
X003142Y004565D01*
X002982Y004631D01*
X002809Y004631D01*
X002649Y004565D01*
X002527Y004442D01*
X002460Y004282D01*
X002460Y004109D01*
X002527Y003949D01*
X002649Y003827D01*
X002809Y003760D01*
X002982Y003760D01*
X002987Y003762D01*
X003160Y003589D01*
X003160Y002803D01*
X003148Y002798D01*
X003032Y002682D01*
X002970Y002532D01*
X002970Y001828D01*
X003032Y001678D01*
X003148Y001562D01*
X003298Y001500D01*
X003462Y001500D01*
X003612Y001562D01*
X003728Y001678D01*
X003790Y001828D01*
X003790Y002532D01*
X003728Y002682D01*
X003612Y002798D01*
X003600Y002803D01*
X003600Y003771D01*
X003521Y003850D02*
X004538Y003850D01*
X004555Y003833D02*
X004615Y003789D01*
X004682Y003755D01*
X004753Y003732D01*
X004827Y003720D01*
X004846Y003720D01*
X004846Y004177D01*
X004883Y004177D01*
X004883Y004214D01*
X005340Y004214D01*
X005340Y004233D01*
X005328Y004307D01*
X005305Y004378D01*
X005271Y004445D01*
X005227Y004505D01*
X005174Y004558D01*
X005113Y004602D01*
X005047Y004636D01*
X004976Y004659D01*
X004902Y004671D01*
X004883Y004671D01*
X004883Y004214D01*
X004846Y004214D01*
X004846Y004177D01*
X004389Y004177D01*
X004389Y004158D01*
X004401Y004084D01*
X004424Y004013D01*
X004458Y003947D01*
X004502Y003886D01*
X004555Y003833D01*
X004846Y003850D02*
X004883Y003850D01*
X004883Y003720D02*
X004902Y003720D01*
X004976Y003732D01*
X005047Y003755D01*
X005113Y003789D01*
X005174Y003833D01*
X005227Y003886D01*
X005271Y003947D01*
X005305Y004013D01*
X005328Y004084D01*
X005340Y004158D01*
X005340Y004177D01*
X004883Y004177D01*
X004883Y003720D01*
X005191Y003850D02*
X005680Y003850D01*
X005666Y003860D02*
X005720Y003821D01*
X005779Y003791D01*
X005842Y003770D01*
X005907Y003760D01*
X006180Y003760D01*
X006180Y004180D01*
X006180Y004180D01*
X006180Y004180D01*
X005520Y004180D01*
X005520Y004147D01*
X005530Y004082D01*
X005551Y004019D01*
X005581Y003960D01*
X005620Y003906D01*
X005666Y003860D01*
X005556Y004009D02*
X005302Y004009D01*
X005340Y004167D02*
X005520Y004167D01*
X005546Y004326D02*
X005322Y004326D01*
X005242Y004484D02*
X005650Y004484D01*
X006180Y004484D02*
X006180Y004484D01*
X006180Y004326D02*
X006180Y004326D01*
X006180Y004167D02*
X006180Y004167D01*
X006180Y004009D02*
X006180Y004009D01*
X006180Y003850D02*
X006180Y003850D01*
X006180Y003600D02*
X005907Y003600D01*
X005842Y003590D01*
X005779Y003569D01*
X005720Y003539D01*
X005666Y003500D01*
X005620Y003454D01*
X005581Y003400D01*
X005551Y003341D01*
X005530Y003278D01*
X005520Y003213D01*
X005520Y003180D01*
X006180Y003180D01*
X006180Y003180D01*
X006180Y003600D01*
X006453Y003600D01*
X006518Y003590D01*
X006581Y003569D01*
X006640Y003539D01*
X006694Y003500D01*
X006740Y003454D01*
X006779Y003400D01*
X006809Y003341D01*
X006830Y003278D01*
X006840Y003213D01*
X006840Y003180D01*
X006180Y003180D01*
X006180Y003180D01*
X006180Y003600D01*
X006180Y003533D02*
X006180Y003533D01*
X006180Y003375D02*
X006180Y003375D01*
X006180Y003216D02*
X006180Y003216D01*
X006180Y003180D02*
X006180Y003180D01*
X006840Y003180D01*
X006840Y003147D01*
X006830Y003082D01*
X006809Y003019D01*
X006779Y002960D01*
X006740Y002906D01*
X006694Y002860D01*
X006640Y002821D01*
X006581Y002791D01*
X006518Y002770D01*
X006453Y002760D01*
X006180Y002760D01*
X006180Y003180D01*
X006180Y003180D01*
X006180Y002760D01*
X005907Y002760D01*
X005842Y002770D01*
X005779Y002791D01*
X005720Y002821D01*
X005666Y002860D01*
X005620Y002906D01*
X005581Y002960D01*
X005551Y003019D01*
X005530Y003082D01*
X005520Y003147D01*
X005520Y003180D01*
X006180Y003180D01*
X006180Y003058D02*
X006180Y003058D01*
X006180Y002899D02*
X006180Y002899D01*
X006733Y002899D02*
X008150Y002899D01*
X008308Y002741D02*
X004669Y002741D01*
X004769Y002582D02*
X008467Y002582D01*
X008625Y002424D02*
X006714Y002424D01*
X006796Y002265D02*
X008564Y002265D01*
X008560Y002107D02*
X006800Y002107D01*
X006725Y001948D02*
X008635Y001948D01*
X009320Y001631D02*
X007040Y001631D01*
X006882Y001790D02*
X009478Y001790D01*
X009161Y001473D02*
X007199Y001473D01*
X006735Y001314D02*
X000910Y001314D01*
X000910Y001156D02*
X006893Y001156D01*
X007052Y000997D02*
X000910Y000997D01*
X000910Y001473D02*
X001171Y001473D01*
X001013Y001631D02*
X000910Y001631D01*
X000910Y001790D02*
X000911Y001790D01*
X002189Y001473D02*
X006576Y001473D01*
X006418Y001631D02*
X004681Y001631D01*
X004774Y001790D02*
X006259Y001790D01*
X005635Y001948D02*
X004790Y001948D01*
X004380Y002180D02*
X006180Y002180D01*
X005646Y002424D02*
X004790Y002424D01*
X004091Y002741D02*
X003669Y002741D01*
X003600Y002899D02*
X005627Y002899D01*
X005538Y003058D02*
X003600Y003058D01*
X003600Y003216D02*
X005520Y003216D01*
X005568Y003375D02*
X003600Y003375D01*
X003600Y003533D02*
X005711Y003533D01*
X006649Y003533D02*
X007960Y003533D01*
X007960Y003375D02*
X006792Y003375D01*
X006840Y003216D02*
X007960Y003216D01*
X007991Y003058D02*
X006822Y003058D01*
X008400Y003375D02*
X008568Y003375D01*
X008520Y003216D02*
X008455Y003216D01*
X008400Y003533D02*
X008711Y003533D01*
X009180Y003533D02*
X009180Y003533D01*
X009180Y003375D02*
X009180Y003375D01*
X009180Y003216D02*
X009180Y003216D01*
X009180Y003058D02*
X009180Y003058D01*
X009180Y002899D02*
X009180Y002899D01*
X009796Y002265D02*
X009954Y002265D01*
X010867Y002265D02*
X011395Y002265D01*
X011475Y002185D02*
X011680Y002185D01*
X011680Y002680D01*
X011680Y002680D01*
X011680Y002680D01*
X011185Y002680D01*
X011185Y002475D01*
X011475Y002185D01*
X011680Y002265D02*
X011680Y002265D01*
X011680Y002424D02*
X011680Y002424D01*
X011680Y002582D02*
X011680Y002582D01*
X011680Y002741D02*
X011680Y002741D01*
X011680Y002899D02*
X011680Y002899D01*
X011680Y003058D02*
X011680Y003058D01*
X011527Y003216D02*
X013278Y003216D01*
X013231Y003058D02*
X013397Y003058D01*
X014725Y003058D02*
X014820Y003058D01*
X014807Y002899D02*
X014820Y002899D01*
X014820Y002741D02*
X014800Y002741D01*
X014800Y002582D02*
X014820Y002582D01*
X014820Y002424D02*
X014800Y002424D01*
X014800Y002265D02*
X014820Y002265D01*
X014820Y002107D02*
X014718Y002107D01*
X014820Y001948D02*
X014559Y001948D01*
X014401Y001790D02*
X014820Y001790D01*
X014820Y001631D02*
X014370Y001631D01*
X014345Y001473D02*
X014820Y001473D01*
X014820Y001314D02*
X014186Y001314D01*
X014820Y001156D02*
X009467Y001156D01*
X009308Y000997D02*
X014820Y000997D01*
X012950Y001473D02*
X012910Y001473D01*
X012910Y001631D02*
X012950Y001631D01*
X012950Y001790D02*
X012910Y001790D01*
X012910Y001948D02*
X012950Y001948D01*
X014137Y002265D02*
X014254Y002265D01*
X014296Y002424D02*
X014360Y002424D01*
X011236Y002424D02*
X011066Y002424D01*
X011132Y002582D02*
X011185Y002582D01*
X011185Y002741D02*
X011135Y002741D01*
X009180Y003850D02*
X009180Y003850D01*
X009180Y004009D02*
X009180Y004009D01*
X009180Y004167D02*
X009180Y004167D01*
X009180Y004326D02*
X009180Y004326D01*
X009180Y004484D02*
X009180Y004484D01*
X008490Y004801D02*
X006498Y004801D01*
X006737Y004960D02*
X008623Y004960D01*
X008560Y005118D02*
X006800Y005118D01*
X006791Y005277D02*
X008569Y005277D01*
X008658Y005435D02*
X006702Y005435D01*
X006180Y005180D02*
X004680Y005180D01*
X004682Y004960D02*
X002176Y004960D01*
X002568Y004484D02*
X000910Y004484D01*
X000910Y004326D02*
X002478Y004326D01*
X002460Y004167D02*
X000910Y004167D01*
X000910Y004009D02*
X002502Y004009D01*
X002880Y004180D02*
X003380Y003680D01*
X003380Y002180D01*
X003790Y002107D02*
X003970Y002107D01*
X003970Y002265D02*
X003790Y002265D01*
X003790Y002424D02*
X003970Y002424D01*
X003991Y002582D02*
X003769Y002582D01*
X003160Y002899D02*
X002177Y002899D01*
X002336Y002741D02*
X003091Y002741D01*
X002991Y002582D02*
X002444Y002582D01*
X002510Y002424D02*
X002970Y002424D01*
X002970Y002265D02*
X002540Y002265D01*
X002540Y002107D02*
X002970Y002107D01*
X002970Y001948D02*
X002515Y001948D01*
X002449Y001790D02*
X002986Y001790D01*
X003079Y001631D02*
X002347Y001631D01*
X003681Y001631D02*
X004079Y001631D01*
X003986Y001790D02*
X003774Y001790D01*
X003790Y001948D02*
X003970Y001948D01*
X003160Y003058D02*
X000910Y003058D01*
X000910Y003216D02*
X003160Y003216D01*
X003160Y003375D02*
X000910Y003375D01*
X000910Y003533D02*
X003160Y003533D01*
X003057Y003692D02*
X000910Y003692D01*
X000910Y003850D02*
X002626Y003850D01*
X003363Y004009D02*
X004426Y004009D01*
X004389Y004167D02*
X003331Y004167D01*
X003313Y004326D02*
X004407Y004326D01*
X004401Y004307D02*
X004424Y004378D01*
X004458Y004445D01*
X004502Y004505D01*
X004555Y004558D01*
X004615Y004602D01*
X004682Y004636D01*
X004753Y004659D01*
X004827Y004671D01*
X004846Y004671D01*
X004846Y004214D01*
X004389Y004214D01*
X004389Y004233D01*
X004401Y004307D01*
X004846Y004326D02*
X004883Y004326D01*
X004883Y004484D02*
X004846Y004484D01*
X004846Y004643D02*
X004883Y004643D01*
X005027Y004643D02*
X008331Y004643D01*
X008173Y004484D02*
X006710Y004484D01*
X005862Y004801D02*
X000910Y004801D01*
X000910Y004643D02*
X004701Y004643D01*
X004486Y004484D02*
X003223Y004484D01*
X004763Y004960D02*
X005623Y004960D01*
X005658Y005435D02*
X004748Y005435D01*
X004607Y005594D02*
X010760Y005594D01*
X010760Y005752D02*
X004466Y005752D01*
X004325Y005911D02*
X010817Y005911D01*
X011180Y005911D02*
X011180Y005911D01*
X011053Y005118D02*
X011770Y005118D01*
X011811Y004960D02*
X011438Y004960D01*
X011560Y004801D02*
X011877Y004801D01*
X012001Y004643D02*
X011560Y004643D01*
X011687Y004484D02*
X012184Y004484D01*
X013076Y004484D02*
X014590Y004484D01*
X004883Y004167D02*
X004846Y004167D01*
X004846Y004009D02*
X004883Y004009D01*
X001184Y004960D02*
X000910Y004960D01*
X000910Y005118D02*
X001026Y005118D01*
X000916Y005277D02*
X000910Y005277D01*
X000910Y002899D02*
X001183Y002899D01*
X001024Y002741D02*
X000910Y002741D01*
X000910Y002582D02*
X000916Y002582D01*
D19*
X001680Y003680D03*
X010180Y004180D03*
X011980Y006280D03*
M02*
