G75*
%MOIN*%
%OFA0B0*%
%FSLAX24Y24*%
%IPPOS*%
%LPD*%
%AMOC8*
5,1,8,0,0,1.08239X$1,22.5*
%
%ADD10C,0.0000*%
%ADD11C,0.0030*%
D10*
X000680Y000680D02*
X000680Y007176D01*
X011113Y007176D01*
X012000Y005230D02*
X012002Y005280D01*
X012008Y005330D01*
X012018Y005379D01*
X012032Y005427D01*
X012049Y005474D01*
X012070Y005519D01*
X012095Y005563D01*
X012123Y005604D01*
X012155Y005643D01*
X012189Y005680D01*
X012226Y005714D01*
X012266Y005744D01*
X012308Y005771D01*
X012352Y005795D01*
X012398Y005816D01*
X012445Y005832D01*
X012493Y005845D01*
X012543Y005854D01*
X012592Y005859D01*
X012643Y005860D01*
X012693Y005857D01*
X012742Y005850D01*
X012791Y005839D01*
X012839Y005824D01*
X012885Y005806D01*
X012930Y005784D01*
X012973Y005758D01*
X013014Y005729D01*
X013053Y005697D01*
X013089Y005662D01*
X013121Y005624D01*
X013151Y005584D01*
X013178Y005541D01*
X013201Y005497D01*
X013220Y005451D01*
X013236Y005403D01*
X013248Y005354D01*
X013256Y005305D01*
X013260Y005255D01*
X013260Y005205D01*
X013256Y005155D01*
X013248Y005106D01*
X013236Y005057D01*
X013220Y005009D01*
X013201Y004963D01*
X013178Y004919D01*
X013151Y004876D01*
X013121Y004836D01*
X013089Y004798D01*
X013053Y004763D01*
X013014Y004731D01*
X012973Y004702D01*
X012930Y004676D01*
X012885Y004654D01*
X012839Y004636D01*
X012791Y004621D01*
X012742Y004610D01*
X012693Y004603D01*
X012643Y004600D01*
X012592Y004601D01*
X012543Y004606D01*
X012493Y004615D01*
X012445Y004628D01*
X012398Y004644D01*
X012352Y004665D01*
X012308Y004689D01*
X012266Y004716D01*
X012226Y004746D01*
X012189Y004780D01*
X012155Y004817D01*
X012123Y004856D01*
X012095Y004897D01*
X012070Y004941D01*
X012049Y004986D01*
X012032Y005033D01*
X012018Y005081D01*
X012008Y005130D01*
X012002Y005180D01*
X012000Y005230D01*
X011113Y007176D02*
X011237Y007174D01*
X011360Y007168D01*
X011484Y007159D01*
X011606Y007145D01*
X011729Y007128D01*
X011851Y007106D01*
X011972Y007081D01*
X012092Y007052D01*
X012211Y007020D01*
X012330Y006983D01*
X012447Y006943D01*
X012562Y006900D01*
X012677Y006852D01*
X012789Y006801D01*
X012900Y006747D01*
X013010Y006689D01*
X013117Y006628D01*
X013223Y006563D01*
X013326Y006495D01*
X013427Y006424D01*
X013526Y006350D01*
X013623Y006273D01*
X013717Y006192D01*
X013808Y006109D01*
X013897Y006023D01*
X013983Y005934D01*
X014066Y005843D01*
X014147Y005749D01*
X014224Y005652D01*
X014298Y005553D01*
X014369Y005452D01*
X014437Y005349D01*
X014502Y005243D01*
X014563Y005136D01*
X014621Y005026D01*
X014675Y004915D01*
X014726Y004803D01*
X014774Y004688D01*
X014817Y004573D01*
X014857Y004456D01*
X014894Y004337D01*
X014926Y004218D01*
X014955Y004098D01*
X014980Y003977D01*
X015002Y003855D01*
X015019Y003732D01*
X015033Y003610D01*
X015042Y003486D01*
X015048Y003363D01*
X015050Y003239D01*
X015050Y000680D01*
X000680Y000680D01*
X001050Y002180D02*
X001052Y002230D01*
X001058Y002280D01*
X001068Y002329D01*
X001082Y002377D01*
X001099Y002424D01*
X001120Y002469D01*
X001145Y002513D01*
X001173Y002554D01*
X001205Y002593D01*
X001239Y002630D01*
X001276Y002664D01*
X001316Y002694D01*
X001358Y002721D01*
X001402Y002745D01*
X001448Y002766D01*
X001495Y002782D01*
X001543Y002795D01*
X001593Y002804D01*
X001642Y002809D01*
X001693Y002810D01*
X001743Y002807D01*
X001792Y002800D01*
X001841Y002789D01*
X001889Y002774D01*
X001935Y002756D01*
X001980Y002734D01*
X002023Y002708D01*
X002064Y002679D01*
X002103Y002647D01*
X002139Y002612D01*
X002171Y002574D01*
X002201Y002534D01*
X002228Y002491D01*
X002251Y002447D01*
X002270Y002401D01*
X002286Y002353D01*
X002298Y002304D01*
X002306Y002255D01*
X002310Y002205D01*
X002310Y002155D01*
X002306Y002105D01*
X002298Y002056D01*
X002286Y002007D01*
X002270Y001959D01*
X002251Y001913D01*
X002228Y001869D01*
X002201Y001826D01*
X002171Y001786D01*
X002139Y001748D01*
X002103Y001713D01*
X002064Y001681D01*
X002023Y001652D01*
X001980Y001626D01*
X001935Y001604D01*
X001889Y001586D01*
X001841Y001571D01*
X001792Y001560D01*
X001743Y001553D01*
X001693Y001550D01*
X001642Y001551D01*
X001593Y001556D01*
X001543Y001565D01*
X001495Y001578D01*
X001448Y001594D01*
X001402Y001615D01*
X001358Y001639D01*
X001316Y001666D01*
X001276Y001696D01*
X001239Y001730D01*
X001205Y001767D01*
X001173Y001806D01*
X001145Y001847D01*
X001120Y001891D01*
X001099Y001936D01*
X001082Y001983D01*
X001068Y002031D01*
X001058Y002080D01*
X001052Y002130D01*
X001050Y002180D01*
X001050Y005680D02*
X001052Y005730D01*
X001058Y005780D01*
X001068Y005829D01*
X001082Y005877D01*
X001099Y005924D01*
X001120Y005969D01*
X001145Y006013D01*
X001173Y006054D01*
X001205Y006093D01*
X001239Y006130D01*
X001276Y006164D01*
X001316Y006194D01*
X001358Y006221D01*
X001402Y006245D01*
X001448Y006266D01*
X001495Y006282D01*
X001543Y006295D01*
X001593Y006304D01*
X001642Y006309D01*
X001693Y006310D01*
X001743Y006307D01*
X001792Y006300D01*
X001841Y006289D01*
X001889Y006274D01*
X001935Y006256D01*
X001980Y006234D01*
X002023Y006208D01*
X002064Y006179D01*
X002103Y006147D01*
X002139Y006112D01*
X002171Y006074D01*
X002201Y006034D01*
X002228Y005991D01*
X002251Y005947D01*
X002270Y005901D01*
X002286Y005853D01*
X002298Y005804D01*
X002306Y005755D01*
X002310Y005705D01*
X002310Y005655D01*
X002306Y005605D01*
X002298Y005556D01*
X002286Y005507D01*
X002270Y005459D01*
X002251Y005413D01*
X002228Y005369D01*
X002201Y005326D01*
X002171Y005286D01*
X002139Y005248D01*
X002103Y005213D01*
X002064Y005181D01*
X002023Y005152D01*
X001980Y005126D01*
X001935Y005104D01*
X001889Y005086D01*
X001841Y005071D01*
X001792Y005060D01*
X001743Y005053D01*
X001693Y005050D01*
X001642Y005051D01*
X001593Y005056D01*
X001543Y005065D01*
X001495Y005078D01*
X001448Y005094D01*
X001402Y005115D01*
X001358Y005139D01*
X001316Y005166D01*
X001276Y005196D01*
X001239Y005230D01*
X001205Y005267D01*
X001173Y005306D01*
X001145Y005347D01*
X001120Y005391D01*
X001099Y005436D01*
X001082Y005483D01*
X001068Y005531D01*
X001058Y005580D01*
X001052Y005630D01*
X001050Y005680D01*
D11*
X007129Y005661D02*
X007177Y005613D01*
X007371Y005806D01*
X007177Y005806D01*
X007129Y005758D01*
X007129Y005661D01*
X007177Y005613D02*
X007371Y005613D01*
X007419Y005661D01*
X007419Y005758D01*
X007371Y005806D01*
X007322Y005907D02*
X007129Y005907D01*
X007129Y006004D02*
X007274Y006004D01*
X007322Y006053D01*
X007274Y006101D01*
X007129Y006101D01*
X007129Y006202D02*
X007322Y006202D01*
X007419Y006299D01*
X007322Y006396D01*
X007129Y006396D01*
X007274Y006396D02*
X007274Y006202D01*
X007274Y006004D02*
X007322Y005956D01*
X007322Y005907D01*
X008025Y005856D02*
X008025Y005711D01*
X008315Y005711D01*
X008315Y005856D01*
X008267Y005905D01*
X008073Y005905D01*
X008025Y005856D01*
X008073Y006006D02*
X008025Y006054D01*
X008025Y006102D01*
X008073Y006151D01*
X008315Y006151D01*
X008315Y006199D02*
X008315Y006102D01*
X008315Y006300D02*
X008122Y006300D01*
X008025Y006397D01*
X008122Y006494D01*
X008315Y006494D01*
X008218Y005610D02*
X008025Y005610D01*
X008170Y005610D02*
X008170Y005416D01*
X008218Y005416D02*
X008315Y005513D01*
X008218Y005610D01*
X008218Y005416D02*
X008025Y005416D01*
X007770Y005365D02*
X007770Y005268D01*
X007722Y005220D01*
X007625Y005220D01*
X007577Y005268D01*
X007577Y005365D01*
X007674Y005413D02*
X007674Y005220D01*
X007770Y005119D02*
X007529Y005119D01*
X007480Y005070D01*
X007480Y005022D01*
X007419Y005024D02*
X007274Y005024D01*
X007322Y005120D01*
X007322Y005169D01*
X007274Y005217D01*
X007177Y005217D01*
X007129Y005169D01*
X007129Y005072D01*
X007177Y005024D01*
X007419Y005024D02*
X007419Y005217D01*
X007371Y005318D02*
X007177Y005318D01*
X007371Y005512D01*
X007177Y005512D01*
X007129Y005463D01*
X007129Y005367D01*
X007177Y005318D01*
X007371Y005318D02*
X007419Y005367D01*
X007419Y005463D01*
X007371Y005512D01*
X007577Y005515D02*
X007577Y005563D01*
X007625Y005563D01*
X007625Y005515D01*
X007577Y005515D01*
X007674Y005413D02*
X007722Y005413D01*
X007770Y005365D01*
X007770Y005119D02*
X007770Y004974D01*
X007722Y004925D01*
X007625Y004925D01*
X007577Y004974D01*
X007577Y005119D01*
X008025Y004972D02*
X008025Y004875D01*
X008073Y004827D01*
X008170Y004827D01*
X008218Y004875D01*
X008218Y004972D01*
X008170Y005021D01*
X008122Y005021D01*
X008122Y004827D01*
X008073Y004726D02*
X008122Y004678D01*
X008122Y004581D01*
X008170Y004532D01*
X008218Y004581D01*
X008218Y004726D01*
X008073Y004726D02*
X008025Y004678D01*
X008025Y004532D01*
X008073Y004431D02*
X008170Y004431D01*
X008218Y004383D01*
X008218Y004286D01*
X008170Y004238D01*
X008073Y004238D01*
X008025Y004286D01*
X008025Y004383D01*
X008073Y004431D01*
X007819Y004483D02*
X007625Y004483D01*
X007577Y004531D01*
X007625Y004631D02*
X007674Y004679D01*
X007674Y004824D01*
X007722Y004824D02*
X007577Y004824D01*
X007577Y004679D01*
X007625Y004631D01*
X007770Y004679D02*
X007770Y004776D01*
X007722Y004824D01*
X007322Y004630D02*
X007274Y004630D01*
X007274Y004582D01*
X007322Y004582D01*
X007322Y004630D01*
X007177Y004630D02*
X007129Y004630D01*
X007129Y004582D01*
X007177Y004582D01*
X007177Y004630D01*
X007129Y004482D02*
X007177Y004433D01*
X007371Y004433D01*
X007322Y004385D02*
X007322Y004482D01*
X007577Y004335D02*
X007577Y004238D01*
X007577Y004286D02*
X007867Y004286D01*
X007867Y004238D01*
X007722Y004137D02*
X007770Y004088D01*
X007770Y003992D01*
X007722Y003943D01*
X007625Y003943D01*
X007577Y003992D01*
X007577Y004088D01*
X007625Y004137D01*
X007722Y004137D01*
X008025Y004138D02*
X008025Y004041D01*
X008025Y004090D02*
X008315Y004090D01*
X008315Y004041D01*
X008218Y003940D02*
X008218Y003795D01*
X008170Y003747D01*
X008073Y003747D01*
X008025Y003795D01*
X008025Y003940D01*
X007770Y003842D02*
X007577Y003745D01*
X007770Y003648D01*
X007322Y003647D02*
X007322Y003695D01*
X007322Y003647D02*
X007226Y003550D01*
X007322Y003550D02*
X007129Y003550D01*
X007322Y003450D02*
X007322Y003401D01*
X007226Y003305D01*
X007322Y003305D02*
X007129Y003305D01*
X007129Y003204D02*
X007322Y003204D01*
X007480Y003206D02*
X007529Y003254D01*
X007770Y003254D01*
X007867Y003254D02*
X007916Y003254D01*
X008025Y003207D02*
X008218Y003207D01*
X008122Y003207D02*
X008218Y003303D01*
X008218Y003352D01*
X008170Y003105D02*
X008073Y003105D01*
X008025Y003057D01*
X008025Y002960D01*
X008073Y002912D01*
X008170Y002912D01*
X008218Y002960D01*
X008218Y003057D01*
X008170Y003105D01*
X007867Y003056D02*
X007577Y003056D01*
X007577Y002911D01*
X007625Y002863D01*
X007722Y002863D01*
X007770Y002911D01*
X007770Y003056D01*
X007480Y003157D02*
X007480Y003206D01*
X007322Y003010D02*
X007177Y003010D01*
X007129Y003058D01*
X007129Y003204D01*
X007129Y002909D02*
X007129Y002764D01*
X007177Y002715D01*
X007274Y002715D01*
X007322Y002764D01*
X007322Y002909D01*
X007577Y002762D02*
X007577Y002616D01*
X007625Y002568D01*
X007674Y002616D01*
X007674Y002762D01*
X007722Y002762D02*
X007577Y002762D01*
X007722Y002762D02*
X007770Y002713D01*
X007770Y002616D01*
X007928Y002421D02*
X008025Y002518D01*
X008025Y002469D01*
X008073Y002469D01*
X008073Y002518D01*
X008025Y002518D01*
X008073Y002320D02*
X008025Y002271D01*
X008025Y002174D01*
X008073Y002126D01*
X008170Y002223D02*
X008170Y002271D01*
X008122Y002320D01*
X008073Y002320D01*
X008170Y002271D02*
X008218Y002320D01*
X008267Y002320D01*
X008315Y002271D01*
X008315Y002174D01*
X008267Y002126D01*
X008315Y002025D02*
X008122Y002025D01*
X008025Y001928D01*
X008122Y001831D01*
X008315Y001831D01*
X008267Y001730D02*
X008218Y001730D01*
X008170Y001682D01*
X008122Y001730D01*
X008073Y001730D01*
X008025Y001682D01*
X008025Y001585D01*
X008073Y001537D01*
X008170Y001634D02*
X008170Y001682D01*
X008267Y001730D02*
X008315Y001682D01*
X008315Y001585D01*
X008267Y001537D01*
X007867Y001634D02*
X007819Y001585D01*
X007577Y001585D01*
X007722Y001537D02*
X007722Y001634D01*
X007722Y001733D02*
X007625Y001733D01*
X007577Y001782D01*
X007577Y001878D01*
X007625Y001927D01*
X007722Y001927D01*
X007770Y001878D01*
X007770Y001782D01*
X007722Y001733D01*
X007419Y001730D02*
X007322Y001634D01*
X007419Y001537D01*
X007129Y001537D01*
X007129Y001730D02*
X007419Y001730D01*
X007322Y001880D02*
X007322Y001977D01*
X007274Y002025D01*
X007129Y002025D01*
X007129Y001880D01*
X007177Y001831D01*
X007226Y001880D01*
X007226Y002025D01*
X007322Y002126D02*
X007129Y002320D01*
X007322Y002320D02*
X007129Y002126D01*
X007577Y002028D02*
X007770Y002028D01*
X007674Y002028D02*
X007770Y002125D01*
X007770Y002173D01*
X007274Y003796D02*
X007322Y003844D01*
X007322Y003941D01*
X007274Y003989D01*
X007226Y003989D01*
X007226Y003796D01*
X007274Y003796D02*
X007177Y003796D01*
X007129Y003844D01*
X007129Y003941D01*
X007129Y004090D02*
X007322Y004090D01*
X007322Y004236D01*
X007274Y004284D01*
X007129Y004284D01*
X007770Y004434D02*
X007770Y004531D01*
M02*
